<svg width="58" height="59" viewBox="0 0 58 59" fill="none" xmlns="http://www.w3.org/2000/svg">
<path d="M9.66666 39.3337C9.66666 41.497 10.6092 43.4391 12.0833 44.7912V47.9378C12.0833 49.9782 13.7025 51.6253 15.7083 51.6253C17.7142 51.6253 19.3333 49.9782 19.3333 47.9378V46.7087H38.6667V47.9378C38.6667 49.9537 40.2858 51.6253 42.2917 51.6253C44.2733 51.6253 45.9167 49.9782 45.9167 47.9378V44.7912C47.3908 43.4391 48.3333 41.497 48.3333 39.3337V14.7503C48.3333 6.14616 39.6817 4.91699 29 4.91699C18.3183 4.91699 9.66666 6.14616 9.66666 14.7503V39.3337ZM18.125 41.792C16.1192 41.792 14.5 40.1449 14.5 38.1045C14.5 36.0641 16.1192 34.417 18.125 34.417C20.1308 34.417 21.75 36.0641 21.75 38.1045C21.75 40.1449 20.1308 41.792 18.125 41.792ZM39.875 41.792C37.8692 41.792 36.25 40.1449 36.25 38.1045C36.25 36.0641 37.8692 34.417 39.875 34.417C41.8808 34.417 43.5 36.0641 43.5 38.1045C43.5 40.1449 41.8808 41.792 39.875 41.792ZM43.5 27.042H14.5V14.7503H43.5V27.042Z" fill="#FF6E6E"/>
</svg>
