<svg width="14" height="17" viewBox="0 0 14 17" fill="none" xmlns="http://www.w3.org/2000/svg">
<path d="M7.00004 0.666992C3.66671 0.666992 0.333374 1.08366 0.333374 4.00033V11.917C0.333374 12.7087 0.650041 13.4253 1.16671 13.9503V15.2503C1.16671 15.942 1.72504 16.5003 2.41671 16.5003C3.10837 16.5003 3.66671 15.942 3.66671 15.2503V14.8337H10.3334V15.2503C10.3334 15.9337 10.8917 16.5003 11.5834 16.5003C12.2667 16.5003 12.8334 15.942 12.8334 15.2503V13.9503C13.35 13.4253 13.6667 12.7087 13.6667 11.917V4.00033C13.6667 1.08366 10.6834 0.666992 7.00004 0.666992ZM4.08337 12.3337C3.39171 12.3337 2.83337 11.7753 2.83337 11.0837C2.83337 10.392 3.39171 9.83366 4.08337 9.83366C4.77504 9.83366 5.33337 10.392 5.33337 11.0837C5.33337 11.7753 4.77504 12.3337 4.08337 12.3337ZM9.91671 12.3337C9.22504 12.3337 8.66671 11.7753 8.66671 11.0837C8.66671 10.392 9.22504 9.83366 9.91671 9.83366C10.6084 9.83366 11.1667 10.392 11.1667 11.0837C11.1667 11.7753 10.6084 12.3337 9.91671 12.3337ZM12 7.33366H2.00004V4.83366H12V7.33366Z" fill="#FF6E6E"/>
</svg>
