<svg width="18" height="12" viewBox="0 0 18 12" fill="none" xmlns="http://www.w3.org/2000/svg">
<path d="M4.87671 0.0221351C5.03927 -0.0484392 5.21461 0.0595827 5.21461 0.207213V9.96951C5.21461 10.1301 5.07489 10.2662 4.89498 10.3411C4.88887 10.3435 4.88278 10.3459 4.87671 10.3483L2.73059 11.3133C1.23288 11.9902 0 11.4285 0 10.0603V3.05395C0 2.60026 0.410959 2.03854 0.922374 1.8081L4.87671 0.0221351ZM11.3534 1.84627C11.4295 1.876 11.4936 1.92187 11.5384 1.97874C11.5833 2.0356 11.6071 2.10121 11.6073 2.16817V11.6403C11.6072 11.7012 11.5876 11.761 11.5502 11.8143C11.5128 11.8676 11.4588 11.9125 11.3934 11.9449C11.328 11.9773 11.2533 11.996 11.1761 11.9994C11.099 12.0028 11.0221 11.9908 10.9525 11.9643L7.07123 10.4902C6.99387 10.4608 6.92859 10.4148 6.88287 10.3575C6.83716 10.3002 6.81286 10.2338 6.81279 10.1661V0.653703C6.81263 0.592376 6.83235 0.532034 6.87006 0.478398C6.90777 0.424762 6.96222 0.37961 7.02827 0.347224C7.09431 0.314837 7.16975 0.296288 7.24743 0.293337C7.32511 0.290385 7.40246 0.303128 7.47215 0.330358L11.3534 1.84627ZM18 2.12496V9.13199C18 9.58568 17.589 10.1474 17.0776 10.3778L13.8895 11.8189C13.82 11.8503 13.7413 11.8668 13.6612 11.8667C13.5811 11.8666 13.5025 11.8498 13.4332 11.8182C13.3639 11.7865 13.3063 11.741 13.2664 11.6863C13.2264 11.6315 13.2054 11.5695 13.2055 11.5063V2.00974C13.2055 1.94627 13.2268 1.88394 13.2672 1.82905C13.3076 1.77416 13.3657 1.72868 13.4356 1.6972L15.2694 0.871908C16.7671 0.19497 18 0.756684 18 2.12496Z" fill="#FF6E6E"/>
</svg>
