<svg width="20" height="22" viewBox="0 0 20 22" fill="none" xmlns="http://www.w3.org/2000/svg">
<path d="M17.3583 7.20157L11.9 2.39823C10.8333 1.46323 9.16666 1.45407 8.10832 2.38907L2.64999 7.20157C1.86666 7.88907 1.39166 9.26407 1.55832 10.3457L2.60832 17.2574C2.84999 18.8066 4.15832 20.0257 5.58332 20.0257H14.4167C15.825 20.0257 17.1583 18.7791 17.4 17.2482L18.45 10.3366C18.6 9.26407 18.125 7.88907 17.3583 7.20157ZM10.625 16.3591C10.625 16.7349 10.3417 17.0466 9.99999 17.0466C9.65832 17.0466 9.37499 16.7349 9.37499 16.3591V13.6091C9.37499 13.2332 9.65832 12.9216 9.99999 12.9216C10.3417 12.9216 10.625 13.2332 10.625 13.6091V16.3591Z" fill="#ABC9FF"/>
</svg>
