<svg width="20" height="22" viewBox="0 0 20 22" fill="none" xmlns="http://www.w3.org/2000/svg">
<g clip-path="url(#clip0_354_951)">
<path d="M10 11.9163C11.9967 11.9163 13.8125 12.5525 15.1483 13.4481C15.815 13.8973 16.385 14.4243 16.7967 14.9973C17.2017 15.5619 17.5 16.2366 17.5 16.958C17.5 17.7326 17.1575 18.3431 16.6642 18.7785C16.1975 19.191 15.5817 19.4642 14.9275 19.6548C13.6125 20.0371 11.8575 20.1663 10 20.1663C8.1425 20.1663 6.3875 20.038 5.0725 19.6548C4.41833 19.4642 3.8025 19.191 3.33583 18.7785C2.84167 18.3422 2.5 17.7326 2.5 16.958C2.5 16.2366 2.79833 15.5619 3.20333 14.9973C3.615 14.4243 4.18417 13.8973 4.85167 13.4481C6.1875 12.5525 8.00417 11.9163 10 11.9163ZM10 1.83301C11.1051 1.83301 12.1649 2.31589 12.9463 3.17544C13.7277 4.03498 14.1667 5.20077 14.1667 6.41634C14.1667 7.63192 13.7277 8.79771 12.9463 9.65725C12.1649 10.5168 11.1051 10.9997 10 10.9997C8.89493 10.9997 7.83512 10.5168 7.05372 9.65725C6.27232 8.79771 5.83333 7.63192 5.83333 6.41634C5.83333 5.20077 6.27232 4.03498 7.05372 3.17544C7.83512 2.31589 8.89493 1.83301 10 1.83301Z" fill="black" fill-opacity="0.23"/>
</g>
<defs>
<clipPath id="clip0_354_951">
<rect width="20" height="22" fill="white"/>
</clipPath>
</defs>
</svg>
