<svg width="24" height="24" viewBox="0 0 24 24" fill="none" xmlns="http://www.w3.org/2000/svg">
<path d="M8.27 3.66208V16.6621M15.44 6.28208V19.6621M2 7.44209V17.1721C2 19.0721 3.35 19.8521 4.99 18.9121L7.34 17.5721C7.85 17.2821 8.7 17.2521 9.23 17.5221L14.48 20.1521C15.01 20.4121 15.86 20.3921 16.37 20.1021L20.7 17.6221C21.25 17.3021 21.71 16.5221 21.71 15.8821V6.15208C21.71 4.25208 20.36 3.47208 18.72 4.41208L16.37 5.75209C15.86 6.04209 15.01 6.07208 14.48 5.80208L9.23 3.18208C8.7 2.92208 7.85 2.94208 7.34 3.23208L3.01 5.71209C2.45 6.03209 2 6.81209 2 7.44209Z" stroke="#FF6E6E" stroke-width="1.5" stroke-linecap="round" stroke-linejoin="round"/>
</svg>
