<svg width="20" height="22" viewBox="0 0 20 22" fill="none" xmlns="http://www.w3.org/2000/svg">
<g clip-path="url(#clip0_354_948)">
<path d="M1.66667 7.79167C1.32501 7.79167 1.04167 7.48 1.04167 7.10417V4.8125C1.04167 2.15417 3.00834 0 5.41667 0H7.5C7.84167 0 8.125 0.311667 8.125 0.6875C8.125 1.06333 7.84167 1.375 7.5 1.375H5.41667C3.69167 1.375 2.29167 2.915 2.29167 4.8125V7.10417C2.29167 7.48 2.00834 7.79167 1.66667 7.79167ZM18.3333 7.79167C17.9917 7.79167 17.7083 7.48 17.7083 7.10417V4.8125C17.7083 2.915 16.3083 1.375 14.5833 1.375H12.5C12.1583 1.375 11.875 1.06333 11.875 0.6875C11.875 0.311667 12.1583 0 12.5 0H14.5833C16.9917 0 18.9583 2.15417 18.9583 4.8125V7.10417C18.9583 7.48 18.675 7.79167 18.3333 7.79167ZM14.5833 19.7083H13.3333C12.9917 19.7083 12.7083 19.3967 12.7083 19.0208C12.7083 18.645 12.9917 18.3333 13.3333 18.3333H14.5833C16.3083 18.3333 17.7083 16.7933 17.7083 14.8958V13.5208C17.7083 13.145 17.9917 12.8333 18.3333 12.8333C18.675 12.8333 18.9583 13.145 18.9583 13.5208V14.8958C18.9583 17.5542 16.9917 19.7083 14.5833 19.7083ZM7.5 19.7083H5.41667C3.00834 19.7083 1.04167 17.5542 1.04167 14.8958V12.6042C1.04167 12.2283 1.32501 11.9167 1.66667 11.9167C2.00834 11.9167 2.29167 12.2283 2.29167 12.6042V14.8958C2.29167 16.7933 3.69167 18.3333 5.41667 18.3333H7.5C7.84167 18.3333 8.125 18.645 8.125 19.0208C8.125 19.3967 7.84167 19.7083 7.5 19.7083Z" fill="black" fill-opacity="0.23"/>
<path d="M7.5 3.38477H5.83333C4.88333 3.38477 4.375 3.93477 4.375 4.98893V6.82227C4.375 7.87643 4.88333 8.42643 5.83333 8.42643H7.5C8.45 8.42643 8.95833 7.87643 8.95833 6.82227V4.98893C8.95833 3.93477 8.45 3.38477 7.5 3.38477ZM14.1667 3.38477H12.5C11.55 3.38477 11.0417 3.93477 11.0417 4.98893V6.82227C11.0417 7.87643 11.55 8.42643 12.5 8.42643H14.1667C15.1167 8.42643 15.625 7.87643 15.625 6.82227V4.98893C15.625 3.93477 15.1167 3.38477 14.1667 3.38477ZM7.5 10.7181H5.83333C4.88333 10.7181 4.375 11.2681 4.375 12.3223V14.1556C4.375 15.2098 4.88333 15.7598 5.83333 15.7598H7.5C8.45 15.7598 8.95833 15.2098 8.95833 14.1556V12.3223C8.95833 11.2681 8.45 10.7181 7.5 10.7181ZM14.1667 10.7181H12.5C11.55 10.7181 11.0417 11.2681 11.0417 12.3223V14.1556C11.0417 15.2098 11.55 15.7598 12.5 15.7598H14.1667C15.1167 15.7598 15.625 15.2098 15.625 14.1556V12.3223C15.625 11.2681 15.1167 10.7181 14.1667 10.7181Z" fill="black" fill-opacity="0.23"/>
</g>
<defs>
<clipPath id="clip0_354_948">
<rect width="20" height="22" fill="white"/>
</clipPath>
</defs>
</svg>
