<svg width="16" height="16" viewBox="0 0 16 16" fill="none" xmlns="http://www.w3.org/2000/svg">
<path d="M14.6667 6.66699V6.00033C14.6667 3.33366 14 2.66699 11.3333 2.66699H4.66667C2 2.66699 1.33334 3.33366 1.33334 6.00033V6.33366C1.77536 6.33366 2.19929 6.50925 2.51185 6.82181C2.82441 7.13437 3 7.5583 3 8.00033C3 8.44235 2.82441 8.86628 2.51185 9.17884C2.19929 9.4914 1.77536 9.66699 1.33334 9.66699V10.0003C1.33334 12.667 2 13.3337 4.66667 13.3337H11.3333C14 13.3337 14.6667 12.667 14.6667 10.0003C14.2246 10.0003 13.8007 9.82473 13.4882 9.51217C13.1756 9.19961 13 8.77569 13 8.33366" stroke="#FF6E6E" stroke-width="1.5" stroke-linecap="round" stroke-linejoin="round"/>
<path d="M6.66666 2.66699V13.3337" stroke="#FF6E6E" stroke-width="1.5" stroke-linecap="round" stroke-linejoin="round" stroke-dasharray="5 5"/>
</svg>
