<svg width="321" height="341" viewBox="0 0 321 341" fill="none" xmlns="http://www.w3.org/2000/svg">
<path d="M0 15C0 6.71574 6.71573 0 15 0H136.989C141.655 0 145.984 2.42771 148.417 6.40842L150.185 9.30012C155.237 17.5644 167.566 16.4745 171.09 7.45207V7.45207C172.845 2.95811 177.176 0 182 0H306C314.284 0 321 6.71573 321 15V326C321 334.284 314.284 341 306 341H181.443C176.903 341 172.775 338.368 170.858 334.253V334.253C167.104 326.191 156.076 325.118 150.838 332.304L148.653 335.302C146.043 338.883 141.88 341 137.449 341H15C6.71573 341 0 334.284 0 326V15Z" fill="white"/>
</svg>
