<svg width="20" height="22" viewBox="0 0 20 22" fill="none" xmlns="http://www.w3.org/2000/svg">
<path d="M17.75 8.93642C18.075 8.93642 18.3333 8.65225 18.3333 8.29475V7.44225C18.3333 3.68392 17.2917 2.53809 13.875 2.53809H6.125C2.70834 2.53809 1.66667 3.68392 1.66667 7.44225V7.87309C1.66667 8.23059 1.92501 8.51475 2.25001 8.51475C3.00001 8.51475 3.60834 9.18392 3.60834 10.0089C3.60834 10.8339 3.00001 11.4939 2.25001 11.4939C1.92501 11.4939 1.66667 11.7781 1.66667 12.1356V12.5664C1.66667 16.3248 2.70834 17.4706 6.125 17.4706H13.875C17.2917 17.4706 18.3333 16.3248 18.3333 12.5664C18.3333 12.2089 18.075 11.9248 17.75 11.9248C17.3898 11.9248 17.0443 11.7673 16.7895 11.4871C16.5348 11.2069 16.3917 10.8269 16.3917 10.4306C16.3917 10.0343 16.5348 9.65426 16.7895 9.37405C17.0443 9.09384 17.3898 8.93642 17.75 8.93642ZM7.5 7.13975C7.95834 7.13975 8.33334 7.55225 8.33334 8.05642C8.33334 8.56059 7.96667 8.97309 7.5 8.97309C7.04167 8.97309 6.66667 8.56059 6.66667 8.05642C6.66667 7.55225 7.03334 7.13975 7.5 7.13975ZM12.5 13.5564C12.0333 13.5564 11.6583 13.1439 11.6583 12.6398C11.6583 12.1356 12.0333 11.7231 12.4917 11.7231C12.95 11.7231 13.325 12.1356 13.325 12.6398C13.325 13.1439 12.9667 13.5564 12.5 13.5564ZM13.25 7.68975L7.64167 13.8589C7.51667 13.9964 7.35834 14.0606 7.20001 14.0606C7.04167 14.0606 6.88334 13.9964 6.75834 13.8589C6.6421 13.7295 6.57692 13.555 6.57692 13.3731C6.57692 13.1912 6.6421 13.0166 6.75834 12.8873L12.3667 6.71809C12.6083 6.45225 13.0083 6.45225 13.25 6.71809C13.4917 6.98392 13.4917 7.42392 13.25 7.68975Z" fill="black" fill-opacity="0.23"/>
</svg>
