<svg width="14" height="14" viewBox="0 0 14 14" fill="none" xmlns="http://www.w3.org/2000/svg">
<path d="M6.99999 1.16699C3.78582 1.16699 1.16666 3.78616 1.16666 7.00033C1.16666 10.2145 3.78582 12.8337 6.99999 12.8337C10.2142 12.8337 12.8333 10.2145 12.8333 7.00033C12.8333 3.78616 10.2142 1.16699 6.99999 1.16699ZM9.78832 5.65866L6.48082 8.96616C6.39879 9.04809 6.28759 9.09411 6.17166 9.09411C6.05572 9.09411 5.94452 9.04809 5.86249 8.96616L4.21166 7.31533C4.13029 7.233 4.08466 7.12191 4.08466 7.00616C4.08466 6.89041 4.13029 6.77932 4.21166 6.69699C4.38082 6.52783 4.66082 6.52783 4.82999 6.69699L6.17166 8.03866L9.16999 5.04033C9.33916 4.87116 9.61916 4.87116 9.78832 5.04033C9.95749 5.20949 9.95749 5.48366 9.78832 5.65866Z" fill="#00A625"/>
</svg>
