<svg width="19" height="15" viewBox="0 0 19 15" fill="none" xmlns="http://www.w3.org/2000/svg">
<path d="M18.3372 6.42857C18.6995 6.42857 19 6.13714 19 5.78571V4.92857C19 1.14857 17.8158 0 13.9186 0H8.39535V1.92857C8.39535 2.28 8.09488 2.57143 7.73256 2.57143C7.37023 2.57143 7.06977 2.28 7.06977 1.92857V0H5.0814C1.18419 0 0 1.14857 0 4.92857V5.35714C0 5.70857 0.300465 6 0.662791 6C1.51116 6 2.2093 6.67714 2.2093 7.5C2.2093 8.32286 1.51116 9 0.662791 9C0.300465 9 0 9.29143 0 9.64286V10.0714C0 13.8514 1.18419 15 5.0814 15H7.06977V13.0714C7.06977 12.72 7.37023 12.4286 7.73256 12.4286C8.09488 12.4286 8.39535 12.72 8.39535 13.0714V15H13.9186C17.8158 15 19 13.8514 19 10.0714C19 9.72 18.6995 9.42857 18.3372 9.42857C17.4888 9.42857 16.7907 8.75143 16.7907 7.92857C16.7907 7.10571 17.4888 6.42857 18.3372 6.42857ZM8.39535 9.36C8.39535 9.71143 8.09488 10.0029 7.73256 10.0029C7.37023 10.0029 7.06977 9.71143 7.06977 9.36V5.64C7.06977 5.28857 7.37023 4.99714 7.73256 4.99714C8.09488 4.99714 8.39535 5.28857 8.39535 5.64V9.36Z" fill="#FF6E6E"/>
</svg>
